# xmcd CD database file
#
# Track frame offsets:
#	225
#	16313
#	34674
#	50610
#	67872
#	88267
#	107759
#	123555
#	144159
#	159620
#	176171
#
# Disc length: 2507 seconds
#
# Revision: 0
# Processed by: cddbd v1.5.1PL0 Copyright (c) Steve Scherf et al.
# Submitted via: CDex 1.51
#
DISCID=9209c80b
DTITLE=Cassus Belli - In The Name Of Rose
DYEAR=2005
DGENRE=Melodic Power Metal
TTITLE0=I'm Your Master
TTITLE1=Vengeance Is My Law
TTITLE2=Holy Gates (In The Name Of Rose)
TTITLE3=Diamond Crown
TTITLE4=Edge Of A Knife
TTITLE5=Initiation (Promised Land)
TTITLE6=Isolation
TTITLE7=Naked King
TTITLE8=Wrongly Right
TTITLE9=Eastern Dance
TTITLE10=Whispering (Instrumental)
EXTD=YEAR: 2005
EXTT0=
EXTT1=
EXTT2=
EXTT3=
EXTT4=
EXTT5=
EXTT6=
EXTT7=
EXTT8=
EXTT9=
EXTT10=
PLAYORDER=
